<svg width="144" height="144" viewBox="0 0 144 144" fill="none" xmlns="http://www.w3.org/2000/svg">
<path d="M40.6667 1.5H39.1C25.9388 1.5 19.3581 1.5 14.3312 4.06135C9.90941 6.31437 6.31437 9.90941 4.06135 14.3312C1.5 19.3581 1.5 25.9388 1.5 39.1V40.6667M40.6667 142.5H39.1C25.9388 142.5 19.3581 142.5 14.3312 139.939C9.90941 137.686 6.31437 134.091 4.06135 129.669C1.5 124.642 1.5 118.061 1.5 104.9V103.333M142.5 40.6667V39.1C142.5 25.9388 142.5 19.3581 139.939 14.3312C137.686 9.90942 134.091 6.31437 129.669 4.06135C124.642 1.5 118.061 1.5 104.9 1.5H103.333M142.5 103.333V104.9C142.5 118.061 142.5 124.642 139.939 129.669C137.686 134.091 134.091 137.686 129.669 139.939C124.642 142.5 118.061 142.5 104.9 142.5H103.333" stroke="white" stroke-width="3" stroke-linecap="round" stroke-linejoin="round"/>
</svg>
